<?xml version="1.0" standalone="no"?>
<!DOCTYPE svg PUBLIC "-//W3C//DTD SVG 20010904//EN"
 "http://www.w3.org/TR/2001/REC-SVG-20010904/DTD/svg10.dtd">
<svg version="1.0" xmlns="http://www.w3.org/2000/svg"
 width="128.000000pt" height="128.000000pt" viewBox="0 0 128.000000 128.000000"
 preserveAspectRatio="xMidYMid meet">
<metadata>
Created by potrace 1.11, written by Peter Selinger 2001-2013
</metadata>
<g transform="translate(0.000000,128.000000) scale(0.100000,-0.100000)"
fill="#000000" stroke="none">
<path d="M0 640 l0 -640 640 0 640 0 0 640 0 640 -640 0 -640 0 0 -640z m730
399 c100 -21 178 -98 195 -191 l7 -38 -56 0 c-36 0 -56 4 -56 12 0 6 -9 31
-21 54 -34 72 -135 103 -240 74 -76 -21 -112 -108 -69 -163 26 -33 39 -39 183
-78 169 -46 229 -83 262 -161 51 -124 -41 -267 -193 -299 -60 -12 -161 -7
-224 11 -87 25 -168 122 -184 218 l-7 42 56 0 55 0 12 -47 c23 -95 125 -153
242 -140 111 14 175 98 136 182 -17 38 -60 59 -187 94 -145 40 -178 55 -220
94 -60 57 -76 131 -46 205 47 111 194 166 355 131z"/>
</g>
</svg>
